<svg id="Layer_1" data-name="Layer 1" xmlns="http://www.w3.org/2000/svg" viewBox="0 0 583.49 893.35"><defs><style>.cls-1{fill:#fff;}</style></defs><title>s logo</title><path class="cls-1" d="M395,758.45c.2-3.58.52-7,.55-10.41.3-38.93.23-77.87,1-116.79.2-9.61-3.14-13.59-12.18-15.64-33-7.49-65.5-16.64-95.54-33C215,542.43,181.25,460.51,206.36,380.2c11.74-37.53,35.73-66.52,67-89.75,1.53-1.14,3.09-2.25,4.61-3.41.23-.17.31-.55.91-1.67-2.51-.46-4.77-.81-7-1.3-6.67-1.45-9.68-5.95-9.5-12.44.16-6.34,3.93-10.92,10.08-10.53,13.24.83,27.61,0,39.36,5,24.57,10.42,45.23,27.35,61.61,48.78a68,68,0,0,1,8.74,15.85c5.22,12.92,3.13,17.48-9.45,23-35.8,15.58-51.12,58.47-31.32,89.2,12.82,19.89,33.25,27.59,56.47,32.85.31-4.22.73-7.54.77-10.86.26-22-.16-44.06.82-66,.8-17.89,6.79-35.06,5.86-53.51-1.07-21.05-7.77-39.05-22.44-53.23a301.69,301.69,0,0,0-41.58-33.5c-24-16.08-36.05-37.05-33.08-66.24.73-7.24,2.87-12.71,10.88-13,8.27-.33,12,4.78,12.77,12.48.37,3.81.56,7.64.75,11.46.65,12.64,6.13,22.43,16.5,29.82,18.88,13.44,37.54,27.18,56.69,41.09.11-2.23.37-5.23.39-8.23q.43-51.7.82-103.39a39.14,39.14,0,0,1,.24-5.74c1-6.53,5.18-11.53,11.45-10.23,4.65,1,9.29,5.48,12.29,9.61,1.88,2.6.9,7.41.9,11.23q0,120.14,0,240.29v19.14c4.67-3.45,7.45-5.33,10-7.44q53.4-43.56,106.74-87.21c13.57-11.13,29.22-16.72,46.52-18,7.84-.6,15.08.64,16.82,10.09,1.38,7.5-3.08,12-13.9,13.06-13,1.32-23.48,7.47-33.22,15.59-35,29.22-70.24,58.24-105,87.77-3.53,3-5.91,8.73-6.51,13.49-1.07,8.48.13,17.23-.58,25.8-.63,7.66,2.73,10.35,9.64,12.3,28.22,8,57.12,14.36,84.21,25.24,114.05,45.84,149.65,180.74,74.28,277.89-38.84,50.06-90.78,76.85-152.68,86.13-15.92,2.39-14.49-1-14.62,16.56-.16,21.06-.46,42.13,0,63.18.21,9.39-3.59,12.53-12.45,12.21-11.47-.4-23-.06-34.46-.21s-13-1.77-13-13.64c0-22-.34-44,.32-66,.25-8.29-2.81-10.91-10.46-12.17-45-7.4-85.86-24.36-120.37-54.7C221.51,790,197,744,191.06,688.45c-1.38-12.91,1.56-15.85,14.83-15.87q51.23-.06,102.44,0c15.58,0,16.86,1.13,18.4,16.36,3.58,35.53,27.7,62.29,62.71,69.49C390.92,758.71,392.51,758.45,395,758.45Zm58.82.95c42.23-1.69,71.81-35.51,70.12-68.17-1.6-31-37.15-60.08-70.12-56.31Z" transform="translate(-130.23 -80.16)"/><path class="cls-1" d="M599.6,270.65c.87-21.07,18.75-41.74,41.29-47.07a86.87,86.87,0,0,1,21.79-1.9c14.77.34,16.79,3.77,10.91,17.7-10.08,23.9-28,36.4-54.18,36-.1,14.55-1.76,16.36-15.58,19.52-14.92,3.41-30.21,5.9-44.49,11.12-13,4.74-24.87,12.49-37.13,19.13-4,2.18-7.71,5-12.85,8.44-.28-3.75-1-5.65-.45-7.14,10.49-30.39,11.59-61.86,10.89-93.54-.07-3.19,0-6.38.09-9.57.23-14.9,3.74-20.47,12.88-20.44,8.52,0,12.06,5.79,12.11,20.06.06,17.86,0,35.72,0,53.57v10.85Z" transform="translate(-130.23 -80.16)"/><path class="cls-1" d="M587.48,433c-16.23,0-32.49.53-48.68-.31-4.94-.26-11.4-3.07-14.11-6.88-4-5.65-.05-11.49,5.07-15.59,18.37-14.74,36.25-30.15,55.28-44,27.09-19.64,38.58-16.63,52.33,13.7,5.71,12.6,9.17,26.37,12.41,39.9,2.33,9.75-1.55,13.45-11.69,13.48-8.6,0-17.19-.23-25.78-.29-8.28-.06-16.55,0-24.83,0Z" transform="translate(-130.23 -80.16)"/><path class="cls-1" d="M621.14,164.31c-.08,30.22-17.94,52.18-45.88,57.64-9.67,1.89-12.11-.56-11.11-10.26,2.61-25.12,11.67-46.16,35.77-58a64.32,64.32,0,0,1,7.91-3.29c9.54-3.18,11.83-1.66,12.95,8.45C621,161.1,621.08,163.33,621.14,164.31Z" transform="translate(-130.23 -80.16)"/><path class="cls-1" d="M174,278.36c19.24,1,33.89,9.58,46.18,23.27,4.18,4.67,3.35,8.24-1.2,12.05-22.72,19-64.85,8.94-77.18-18.4-2.53-5.6-.49-8.88,4.49-10.29C155.41,282.42,164.73,280.53,174,278.36Z" transform="translate(-130.23 -80.16)"/><path class="cls-1" d="M656.43,323.72c24.48-.15,41.9,11.27,53.7,32.13,3.32,5.88,2.59,10.19-4.58,12.44-27.27,8.54-55.36-2.7-69.45-27.91-5.85-10.46-4.68-13.13,7.06-15.24C647.53,324.36,652,324.18,656.43,323.72Z" transform="translate(-130.23 -80.16)"/><path class="cls-1" d="M236.13,278.54c-28.61-.73-52.22-26.34-51.16-55.05.32-8.76,4.76-9.85,12-8.41,25.26,5,46.63,29.81,48,55.52C245.29,277.37,241.78,278.91,236.13,278.54Z" transform="translate(-130.23 -80.16)"/><path class="cls-1" d="M512.14,148.89c.91-18.12,10.19-30.45,23.2-40.89,4.89-3.91,8.27-3,11.79,2,15.76,22.27,9.84,54.31-12.73,69.45-7.1,4.76-12.15,3.65-14.84-4.17C516.6,166.63,514.57,157.69,512.14,148.89Z" transform="translate(-130.23 -80.16)"/><path class="cls-1" d="M450.52,316.14c.5-18.81,9.36-32,25-41.5,7.48-4.53,11.53-2.11,14.68,5.21,10,23.18-2.66,52-26.52,60.27-4.84,1.68-8.32.76-9.51-4.4C452.7,329.25,451.72,322.67,450.52,316.14Z" transform="translate(-130.23 -80.16)"/><path class="cls-1" d="M489.11,119.64c-1.2,16-11.5,31.27-25.83,37.36-5.55,2.36-8.85,1.16-11.33-4.44-9.56-21.5-3-44.89,16.19-58.56,6.44-4.6,10.8-3.35,13.52,3.24C484.65,104.5,486.67,112.16,489.11,119.64Z" transform="translate(-130.23 -80.16)"/><path class="cls-1" d="M280.74,236.66c-22-.86-39.59-14.85-44.84-35.13-1.64-6.35-.3-9.59,6.62-10.53a47.56,47.56,0,0,1,52.1,35.53C296.65,234.85,293.5,237.15,280.74,236.66Z" transform="translate(-130.23 -80.16)"/><path class="cls-1" d="M389.64,176.86c-1.29,15.36-9.06,25.51-21.35,32.89-5.86,3.52-9.78,2.5-12.82-4.06a42.86,42.86,0,0,1,13.32-52.91c6.74-5.07,11.27-3.59,14.16,3.46C385.68,162.91,387.45,170,389.64,176.86Z" transform="translate(-130.23 -80.16)"/><path class="cls-1" d="M342,131.62c-4,8.41-7.46,17.1-12.11,25.13-3.15,5.45-7.91,5.26-12.71.77-15.37-14.37-17.1-41.17-3.74-57.64,3.6-4.43,6.93-3.71,10.5-.55C333.35,107.64,340,117.41,342,131.62Z" transform="translate(-130.23 -80.16)"/><path class="cls-1" d="M502,220.18c-2.3,6-3.16,15.36-7.3,17.17-4.44,1.93-12.73-2-18-5.48-14.09-9.14-18.93-28.39-12.6-44.39,2.34-5.93,6.06-6.52,11.39-4.42C490.11,188.81,500.34,203.69,502,220.18Z" transform="translate(-130.23 -80.16)"/><path class="cls-1" d="M152.68,377.74q-11.22-6-22.45-12c5.24-6.41,9.4-14.39,16-18.87,12.09-8.26,25.46-5.68,38.16.28,5,2.34,5.34,6,2.31,10.05C178.5,368.17,168.14,375.34,152.68,377.74Z" transform="translate(-130.23 -80.16)"/><path class="cls-1" d="M687.42,306.31c-13.57,0-26.36-5.75-27.16-11.19-.67-4.6,11.47-16,21.12-16.91,8.72-.79,18,1,26.57,3.23,6.6,1.73,7.58,6.86,2.74,12.47C703.89,301.79,695.78,306.68,687.42,306.31Z" transform="translate(-130.23 -80.16)"/><path class="cls-1" d="M263.31,153.48c-.08-9.59,3.25-12.14,12.26-9.38,12,3.66,19.76,14.18,20.06,27.08.19,8.45-2.87,11-11,9.17A27.6,27.6,0,0,1,263.31,153.48Z" transform="translate(-130.23 -80.16)"/><path class="cls-1" d="M397.3,131.77c.78,6.72-3.1,8.36-9.35,7.18-11.54-2.19-20.71-14.76-18.23-26.27.5-2.33,5-5.55,7.49-5.43C388.3,107.77,397.1,118.81,397.3,131.77Z" transform="translate(-130.23 -80.16)"/><path class="cls-1" d="M434.21,96.94c-2.08,10.46-9.72,22.21-15.26,21.58-4.91-.56-9.82-12-8.84-20.61,0-.31,0-.7.15-.93q6-8.43,12.11-16.82Z" transform="translate(-130.23 -80.16)"/></svg>