<svg id="Layer_1" data-name="Layer 1" xmlns="http://www.w3.org/2000/svg" viewBox="0 0 795 783"><defs><style>.cls-1{fill:#FFFFFF;}</style></defs><title>tree logo</title><path class="cls-1" d="M757.12,389.78c.08,196.61-158.25,360.41-356.7,360.36C201.09,750.09,39,592.84,39.36,390.08,39.72,190.51,197.53,34.16,396.64,32,597.92,29.84,757.25,195.51,757.12,389.78Zm-551.55-26.3c-6.52,6.24-13.68,9.92-22.7,5.63-3.54,7.31-7.28,14.34-10.39,21.64-2.52,5.92-1.6,8.41,4.52,10.35,23,7.31,45.42,17.65,70.51,16.07,2.54-.16,4.4-.05,5.93-3,2.68-5.21,8.21-4.75,10.86.37a39.17,39.17,0,0,0,2.47,3.71l1.34-.31c1.81-8.26,3.77-16.48,5.4-24.77,2.11-10.76,1.13-12.89-9.08-16.52-17.39-6.2-34.93-12-52.43-17.87a53.92,53.92,0,0,0-5.95-1.23c-.23,2.35-.42,4.21-.6,6.07Zm-67.12,0c-2,9.56-.41,18.58,3.34,27.12,8,18.3,22.91,29.4,40.54,37.34,13,5.86,26.95,8,41.77,9.61-17.93,9.17-36.45,16-50.58,30.12A4.56,4.56,0,0,0,177,468c12.35-4.51,24.61-9.29,37-13.62,33.06-11.52,66.61-13.5,98,3.1,48.81,25.8,60.86,72.81,43.18,123.81-8.14,23.51-26.15,40.71-47.78,52.67-31.73,17.55-66.11,24-102.29,20.39-2.64-.26-5.34,0-8,0a12.76,12.76,0,0,0,5.57,3.6c26.63,8.89,53.77,11.2,81.24,4.9,22.71-5.21,44.75-12.18,61.61-29.75,1.71-1.78,4.07-2.93,5.86-4.65,6.71-6.44,13.72-12.62,19.86-19.57,10.11-11.45,17.38-24.77,23.62-38.67,1-2.18,2.68-4,4-6l1.78.75a62.43,62.43,0,0,1-.48,7.64,97.35,97.35,0,0,1-27.51,51.73c-12.34,12.29-26.24,23.08-39.86,34a119.68,119.68,0,0,1-46.33,22.65c-9.2,2.31-18.54,4.05-27.79,6.15a36.53,36.53,0,0,0-5,1.95c.23.57.47,1.13.71,1.7,50.89,6.32,92.67-10.94,126.14-50.05-4.66,15.71-11,30.13-22.77,41.71-10,9.84-22.27,15.61-35,20.73-2.31.92-4.47,2.19-6.71,3.31.21.51.41,1,.62,1.54a78.19,78.19,0,0,0,41-8.86c13.22-6.82,22.71-17.38,30.64-30,.64,4.05.44,7.84.67,11.6,1,17.11,7.81,30.53,24.52,37.29,2.21.9,4.72,1.06,7.09,1.56a5,5,0,0,0-2-3.15c-12-9-17.81-21.15-16.51-36,.85-9.77,3.13-19.41,4.77-29.11,6.07,22.85,11.91,32.45,27,43.24,13.72,9.83,40.33,16.19,49.28,11.21-33-10.86-59-27.34-56.6-67.28,11.17,21,28.15,35.52,49.87,44.5,22.54,9.32,60.54,12.27,66.25,5.08-1.75-.48-3.28-1-4.84-1.32-9.73-2.28-19.54-4.22-29.16-6.86-19.46-5.35-37.15-13.8-50-30.22-5.09-6.52-8.51-13.78-11.17-22.52,5.41,5,9.49,9.74,14.52,13.11Q523.59,681.55,594,657.64c1.9-.65,3.48-2.24,5.2-3.4l-.72-1.41c-7.77.68-15.52,1.76-23.3,2a160.25,160.25,0,0,1-85.61-21.63c-45.36-26.09-57.83-63.95-53.87-108.75a61.68,61.68,0,0,1,4.13-17.92c9.75-23.58,26.53-40.95,49.32-52.14,4.78-2.34,11-2.76,16.46-2.53,13.17.56,25.17,5.91,37.26,10.64a31.62,31.62,0,0,0,4.9,1.07c.22-.63.44-1.26.67-1.88-8.8-10.65-21.63-14.82-34.09-20.12,18.85-7.77,37.67-15.22,57.57-18.37,27.19-4.31,53.44-.52,77.8,13.32,3.63,2.06,7.8,3.19,11.71,4.75.37-.57.73-1.14,1.09-1.72-4.57-3.94-8.69-8.61-13.78-11.7a131.11,131.11,0,0,0-57.9-18.94c-22.19-1.79-43.81,1.89-65.08,8.16-37.31,11-72.44,25.84-99.44,55.89.81-7.05,1.39-13.79,2.37-20.47,3.74-25.52,12.67-49.23,25.08-71.76,20.76-37.69,48.34-68.83,86-90.4,14.89-8.52,30-16.62,44.63-25.6,6.72-4.14,12.44-9.92,18.61-15l-.82-1.23c-2.26,1-4.52,1.87-6.76,2.84-11.75,5.14-23.41,10.46-35.24,15.39-35.86,15-68.66,34.13-95.39,63.23-24.93,27.11-46.49,56.13-60.43,90.42-.33.82-1,1.49-2.48,3.49C393,412.12,384,401.44,376.44,389.77c-14.78-23-29.05-46.21-46.39-67.45-11.22-13.75-19.46-29.59-25.7-46.12-9.68-25.6-9-51.55.36-77.26,1.44-3.92,2.93-7.83,4.4-11.75l-1.58-.86c-2.49,3.42-5.47,6.59-7.4,10.3-11.42,22-13.25,45.45-9.68,69.54,2.68,18.14,11.41,34,19.64,50,2.68,5.21,5.07,10.56,7.59,15.85l-1.41,1.23c-3.31-2.32-6.89-4.34-9.87-7-19.74-17.73-39.89-34.91-62.81-48.47-17.68-10.46-35-21.35-48.9-36.81a10.44,10.44,0,0,0-2.67-1.57,29,29,0,0,0,3.53,9.42c8.1,14,19.86,24.59,32.88,33.72a721,721,0,0,1,72.91,58.31c33.87,31,51.35,70.67,61.56,114.29,1.29,5.49,1.54,11.21,2.42,18-3.67-4.21-6.15-7.57-9.13-10.4-30.14-28.63-66-39.31-107-34.15-5.9.75-12,1.43-17.85.85-9.25-.91-18.36-3.06-27.57-4.44-28.88-4.34-50.51-17.94-60.38-46.77C141.7,373.31,140.09,368.37,138.45,363.45ZM541.22,307c1.91,7.05,3.88,14.25,5.8,21.45q6.48,24.36,12.89,48.73c1.05,4,3,5.37,6.73,3,.84-.53,1.85-.78,2.71-1.27,38.28-22,78.54-40,118.18-59.28,10.27-5,20.3-10.49,30.33-15.7-11.5-23.47-22.66-46.25-33.33-68C632.79,253,586.17,278.44,541.22,307ZM565.3,159.11l-1.31.51a7.91,7.91,0,0,0-1.46.1c-47.63,12.49-90.46,35-130.81,62.71a4.35,4.35,0,0,0-1.41,3.64c3.58,17.11,7.23,34.2,11.12,51.24,1.54,6.72,3.72,13.29,5.42,19.26L596,227.43Q580.73,193.41,565.3,159.11ZM381.26,291c5.33-1.79,10.2-3,14.73-5,14-6.24,20.19-17.82,20.72-32.62.52-14.41-5.24-25.61-18.3-32.39a76.22,76.22,0,0,0-12.5-5c-6.19-1.93-12.52-3.41-18.79-5.1-1.93-.52-3.86-1.05-5.76-1.64-5.28-1.63-8.84-5-9.08-10.66-.23-5.42,3.26-9.1,7.82-11.21,9.66-4.47,19.21-2.83,28.36,1.75,5.62,2.81,11,6,16.61,9.07,3.73-6.27,7.26-12.2,10.77-18.12-9.91-8.77-20.45-15.85-33.92-18.35,0-2.79,0-5.44,0-8.08C382,143,380,141.17,369.27,142.47c-1.32.16-2.65.33-4,.57-3.58.65-5.59,2.47-5.36,6.46s.05,7.94.05,10.72c-6.84,3.28-13.43,5.45-18.89,9.25-12.16,8.47-16.84,20.87-15,35.34,1.57,12.47,9.11,20.83,20.58,25.52,4.74,1.94,9.8,3.13,14.69,4.74,7.86,2.6,15.91,4.8,23.47,8.08,5,2.18,7.06,8.39,6,13.68-.93,4.67-5.6,9.63-10.67,10-12.48.94-24.7.36-34.93-8.48-3.87-3.35-8.1-6.28-12.16-9.4-3.74,5.44-7.11,10.56-10.71,15.51-2.54,3.48-2.24,6.24,1,9.09,8.49,7.54,17.8,13.62,29.17,15.45,5,.81,6.85,2.47,6.67,7.87-.45,13.65,3.79,16.69,17.42,13.51a2.77,2.77,0,0,1,.48-.11c3.05-.37,4.24-2.15,4.2-5.13C381.21,300.35,381.26,295.53,381.26,291ZM212.12,200.65c4.93-2.68,8-4.61,11.34-6.11q45-20.47,90-40.82c13.64-6.2,27.23-12.5,40.86-18.72,2-.91,3.32-1.69,2.33-4.44-6.27-17.37-12.33-34.82-18.54-52.21-1.14-3.22-2.63-6.31-4-9.47-4,1.56-7.16,3-10.47,4.08C282.71,86.38,244,104.81,206.49,126c-2.66,1.5-3.86,3-3.55,6.19.58,6,.31,12,1.17,17.95C206.49,166.58,209.28,182.94,212.12,200.65ZM74.58,310.73c2.3,1.11,4.18,2.09,6.12,2.95q38.77,17.16,77.56,34.25c10.05,4.4,20.23,8.5,30.37,12.67,3.33,1.37,5.71,1.06,7.45-2.94,8.66-19.93,17.63-39.74,26.63-59.9a961.66,961.66,0,0,0-119-49.91ZM691.08,471.6c-5.46-2.82-10.83-5.81-16.38-8.42-29.36-13.83-60.65-22-91.59-31.29-3.41-1-5.13-.09-6.64,3-7.06,14.33-14.37,28.54-21.38,42.9-3.33,6.8-3.23,7.15,3.92,10.26,22.9,9.94,45.82,19.85,68.87,29.44,13.63,5.66,27.51,10.7,41.82,16.23ZM192.81,526.54a67,67,0,0,0,6.91,2.48c16.67,4,33.24,8.52,50.08,11.61,13.21,2.43,26.76,3,40.17,4.46,3.43.36,5.06-.81,5.26-4.64.22-4.29,1.44-8.52,2.13-12.79,1.94-11.93,3.83-23.86,5.78-36-1.74-.4-2.83-.74-4-.89A447.32,447.32,0,0,1,221.4,473c-5-1.65-7.6-.9-9.46,4C205.76,493.3,199.38,509.56,192.81,526.54ZM452.15,330.83l-19.57-36.17a7.47,7.47,0,0,0-1.51.15q-31.71,19.35-63.34,38.82a4,4,0,0,0-1.29,3.55c4.32,12.7,8.84,25.34,13.39,38.23a26.73,26.73,0,0,0,3.88-1.55C406.36,359.65,429,345.4,452.15,330.83Zm53.16-179.52c7.09-6.15,13.79-12.34,20.89-18,7.79-6.25,20.22-10.05,25.61-8.21-14.09,9.08-28.1,18-40.32,30.58,32.77,4,64.2-17,68.85-45.49-9-.74-17.9-2.12-26.83-2.09C526.63,108.15,511.3,123.84,505.31,151.31Zm-46.15-39.62c-6.76,7.16-13.07,14-19.55,20.66-7.48,7.7-10.84,17-11.1,27.56-.31,12.92,4,24.13,12.55,34.78.22-19.44-1.88-38.55,12.5-53.77-1.92,16.8-4.91,33.47-4.65,51C476.17,171.37,476.26,138.33,459.16,111.69Zm102.56,427c1.32-18.41-12.65-51.63-26.44-63.19-5.82-4.87-12.5-7.77-21-9.12l24.36,41.53-1.15.87c-5.65-6-11.7-11.77-16.84-18.21s-9.44-13.69-14.39-21C504.63,501.82,524.23,526.45,561.72,538.67ZM725.57,400.9c-14.9-7.91-27.94-18.38-45.43-13.65-9,2.44-24.5,14.1-26.45,19.43l41.08-5c.08.58.17,1.17.25,1.76-11.27,7.93-24.79,8.69-38.88,10.7,9.13,11,19.6,15.15,32.45,13.76C705.84,426.06,716.23,415,725.57,400.9ZM607.72,230.33c11.33-11.19,21.48-22,37.51-23.44l-31.46,28.24c13.74,6.62,26.59,4.3,37.09-5.83,11.79-11.38,15.18-26,16.88-41.45C640.35,183.94,607.17,206.48,607.72,230.33ZM258.15,216.92l1.82.79c.55,14.28.57,28.62,4.69,44,2-3.32,3.63-5.26,4.49-7.48,1.9-5,3.45-10,5.11-15.1,5.15-15.74-2-31.28-.17-46.9-16-1.44-35.56,18-37.11,36.15-1.42,16.54,8.65,33.6,20.58,34.75a8.67,8.67,0,0,0-.35-1.42c-5.23-12-6.61-24.33-3.06-37C254.92,222,256.79,219.52,258.15,216.92ZM125.47,195.4c-1.85,17.36-1.34,32.88,10.47,46,9.64,10.68,25.6,15.22,38.51,10.79-9.69-10.71-23.69-17-31.93-31.07,16.12,4.94,26.55,15.76,38,25.18-2.47-13.07-7.45-24.71-18.93-31.69C150.41,207.79,138.47,202.23,125.47,195.4ZM653.59,366.78c.47.58.94,1.17,1.4,1.76l-34.43,29.34a62.22,62.22,0,0,0,27.53-4.57c20.28-8.24,25-28.27,35.07-45.52-18.8,1.91-36.51,4-51.31,15.37-9.69,7.45-13.77,18.28-16.52,29.88C626.88,382.32,638,371.12,653.59,366.78ZM428.09,96.23c-3.76,13.65-9.87,26.56-12.92,41.17,25-12.56,38.32-49.6,25.15-67.55-40.75,20.71-41.92,47.05-32.34,68C410,121.49,415.71,107.24,428.09,96.23ZM190.26,220.3c-6.57-11.13-13.54-21.52-13-34.39l1.69-.67,18.12,35.66c10.32-31.62-12.15-56.36-29.62-66-3.69,11.93-6.37,24-4.58,36.27a40.68,40.68,0,0,0,6.43,16.45C174,214.5,180.43,219.83,190.26,220.3ZM488.16,97.82l2.27-.08c6.18,12.2,4.94,25.83,6,39.71,12.86-13.62,15.93-33.27,6.31-48.61-4.46-7.11-10.4-13.3-15.68-19.92-17.9,15.52-16.25,54.64,2.78,71.18-.59-7.26-1.38-14.14-1.65-21C487.94,112,488.16,104.9,488.16,97.82ZM608.6,132.16c-15.67,13-27.87,42.57-9.26,67.76.74-13,2.36-25.24,6.76-37.09a72.53,72.53,0,0,1,1.8,19c-.27,6.42-1.41,12.81-2.28,20.16C629.56,181.42,628.23,158.45,608.6,132.16ZM489.72,515.81c-10.36-10.25-13.12-23.31-14.15-37.57-17.09,22.48-5.54,53.19,27.9,60,5.71-26.27-3.9-56.15-20.13-59.88C485.51,491.12,487.61,503.47,489.72,515.81ZM282,351c-3.21-19-15.23-28.65-31.8-32.78-6.86-1.71-14.47-.63-21.72-.3-1.46.06-4.23,2.89-4,3.76,2.83,10.1,5.72,20.18,14.84,27,12,8.95,25.38,8.24,39.86,6.43l-35.66-23.6.86-1.32C258.8,332.88,270.79,340.23,282,351ZM91.87,412.58c10.11-10.91,22.73-14.68,36.82-15.21-12.39-6.76-24.66-9-37.35-1.42-8.86,5.28-14.72,13.33-20.45,21.55-1.57,2.25-.71,3.66,1.44,4.76,14.37,7.32,28.82,9.43,43.07,0,6.51-4.32,11.74-9.92,14.19-18.81Zm35.76,69.5c-.12-.91-.24-1.83-.37-2.74l31.82-9.59c-8.5-4.81-16.12-6.35-24.26-5.32-13.55,1.71-25,8.75-36.68,15-.64.34-1,1.18-2,2.35,10.31,8.86,21.12,16.06,34.93,16.52s24.18-7.36,27.09-19.27Zm-1.86-106.19,1.87-.8c-2.1-5.26-3.44-11-6.42-15.69-9.24-14.55-34.41-21.18-50.51-13.87,10.31,29.32,29,40.32,51.51,35.41-5.23-3.87-9.83-7.34-14.49-10.72s-9.32-6.64-14-10l1-1.4C106.5,361.9,116.61,368,125.77,375.89ZM377.26,86.09l2-.57L389.61,119A45,45,0,0,0,379,60c-21.11,17.71-22.21,48.77,3.7,63C378.34,110.85,374.27,98.93,377.26,86.09Zm91.4,326.1.81,1.38c8.4.31,16.77-.1,24.4-4.27,10.35-5.65,13.67-16.31,17.54-26.35.41-1.06-2-4.41-3.53-4.84-26-7.17-44.66,3.21-47.37,34,11.43-11.14,21-24.05,38-26.49ZM119.88,427.37c12.17,25.53,32.27,34.21,54,23.3l-32-16.14.63-1.21c12.22.06,22.49,5.94,33.14,11.76C170.14,423.26,146.84,416,119.88,427.37Zm209.21-8.67,1.39-.47c-1.2-4.79-2.21-9.62-3.62-14.34-5.22-17.53-19.19-28.24-37.49-29.16-3.77-.19-5.78.66-5.1,4.91.4,2.46.37,5,.61,7.46,1.62,16.58,12.92,28.49,29.49,31,2.91.44,5.85.68,9.41,1.08-9.23-10-19.75-17.43-25.51-29.08C311.42,396.56,321.41,406.37,329.09,418.7Zm165.43-57.49c0,.55.09,1.1.13,1.66,5.51.77,11,2.06,16.54,2.2,11.15.28,20.2-3.53,24.66-14.75.8-2,1.82-3.92,2.74-5.88,3.22-6.91,1.3-11.72-6.21-12.29s-15.38-.38-22.6,1.41c-10.69,2.66-17.53,11.93-17.49,20.93,12.93-6.78,25.33-10.3,31.84-8.56ZM172.31,504.88l-1.77-1.53,16.16-24.83c-19.9-.41-33.69,21.28-30.93,47.08,26.67-6.31,38.66-20.28,37.73-44.92Zm136.61-38.21a61.09,61.09,0,0,0-5.91-3c-21.45-7.63-43.34-7.73-65.41-3.47-1.88.36-3.57,1.7-5.34,2.59,0,.67,0,1.35,0,2,4.29,1.35,8.5,3.33,12.89,3.95,13,1.83,26,3.28,39.06,4.58C292.81,474.25,301.1,473.18,308.92,466.67Zm3.76,67.26c11.18-6.19,19.08-14.51,20.29-27.69.7-7.56.39-15-5.24-21.09-3.53-3.82-5.52-4.25-9-.18a35.94,35.94,0,0,0-6.88,11.3C307.78,508.62,308.34,521.1,312.68,533.93ZM703.42,340.29c-8.69-.18-13.12,4.13-12.42,11.15.11,1.08,2.28,3,2.72,2.83a73.61,73.61,0,0,0,12-6.37c1.09-.76,1.38-3.8.85-5.4C706.16,341.25,703.91,340.6,703.42,340.29Z"/><path class="cls-1" d="M593.94,308.74c1.25-24.77,16.69-38.21,39.55-32.89,13.53,3.16,21.85,18.09,19.27,32.89-2.94,16.85-14.19,24.6-30.59,28.85-2.76.72-6.28-.38-9.15-1.44C602,332.09,594,320.29,593.94,308.74Zm36.18-22.88c-3.37,0-5.67-.25-7.89.08s-4.92.66-6.53,2a29.12,29.12,0,0,0-6.21,7.68c-3.49,6-.83,11.38,6,12.43,3.6.55,7.33.34,10.88,1.06,1.66.34,3.29,1.89,4.35,3.32.29.41-1.4,2.41-2.33,3.56-1.7,2.09-3.23,2.33-5.88.69-1.52-.93-4.6.41-6.84,1.14-.4.13-.42,3.29-.12,3.38,4.2,1.26,8.88,3.76,12.65,2.81,3.62-.91,7-5,9.3-8.52,4.44-6.64,1.54-13-6.29-14.6-3.4-.7-7-.42-10.39-1.08-1.43-.28-2.62-1.83-3.91-2.81,1.13-1.26,2.09-3.32,3.44-3.62,2.22-.49,4.69.15,7.72.35C628.69,291.37,629.37,288.76,630.12,285.86Z"/><path class="cls-1" d="M687.74,307.33c-2.31-13.56-.8-17.09,10-21.75,1.91,4.08,3.95,8.16,5.68,12.36.28.68-.53,2.39-1.28,2.81q-19.61,10.85-39.36,21.39c-1.26.67-3,.44-5,.68C660.86,316.16,680.23,306.52,687.74,307.33Z"/><path class="cls-1" d="M571.54,347c5.86,0,11.55,5.43,11,11.13-.15,1.54-2,3.27-3.54,4.26-9.63,6.3-13,4.74-14.86-6.73C563,348.77,564.44,347.07,571.54,347Z"/><path class="cls-1" d="M677.7,282.9c-.18,5.46-4.34,9.65-9.47,9.55-4.91-.09-8.87-3.82-8.87-8.34,0-5.22,4.85-10.09,9.89-10A8.74,8.74,0,0,1,677.7,282.9Z"/><path class="cls-1" d="M685.79,260.09c-10.36,6.73-16.84.9-23.68-6.32,4.62-2.29,9.12-4.87,13.91-6.66,1.25-.46,4.17,1.09,5,2.5C683.13,253.11,684.47,257.06,685.79,260.09Z"/><path class="cls-1" d="M579.61,336a8.43,8.43,0,0,1-8.13-8.43c.1-4.9,4.87-9.83,9.54-9.84a7.26,7.26,0,0,1,7.6,7.47C588.46,330.8,584.05,336.09,579.61,336Z"/><path class="cls-1" d="M557.37,326.94c-1.8-4.7-2.93-7.61-4-10.54a6.71,6.71,0,0,1,1.94-8.08c3-2.72,7-6.47,10.17-3.62,2.08,1.89,1.86,8,.61,11.45C564.7,319.87,560.93,322.71,557.37,326.94Z"/><path class="cls-1" d="M587.14,357.58c6-5.89,12.88-10.21,21.29-11.68l.89,1.66L587.9,359Z"/><path class="cls-1" d="M467.76,273.67l31.83-18.78c-4.26-3.19-9.41-6-13.26-10.13-8.8-9.33-8.24-20.65-4.62-31.88s10.93-18.39,23.09-20c10.55-1.44,18.3,3.22,23.75,11.46,4.36,6.61,6.43,14.25,4.55,22.41-.45,1.95-.93,3.88-1.36,5.83-2,9.05-7,15.2-15.83,19-7.74,3.32-14.76,8.28-22.18,12.38-11,6.08-22.07,12.14-33.21,18-5,2.66-7,1.85-9.51-3.17a16.17,16.17,0,0,1-1.31-3.24c-.86-3.43-2.89-7.06,1.55-9.72s8.79-2.47,12.17,1.23C465.24,269,466.44,271.6,467.76,273.67ZM511,213.73c.25-3.28.9-6.15.41-8.82-.14-.75-3.61-1-5.58-1.26-7.94-.88-9.63,5.93-12.4,10.79s-.58,9,4.72,10.38c4.28,1.08,8.8,1.22,13.28,1.78,1.95,6.08-.33,8.55-6.66,7.46-1.52-.26-3.42.62-4.86,1.47-.62.37-.79,2.89-.68,2.93,4.21,1.38,8.7,4,12.66,3.33,2.8-.45,5.57-5,7.15-8.27,4.06-8.44.81-13.7-8.46-14.67-1.81-.19-3.71,0-5.41-.46a32.1,32.1,0,0,1-5.27-2.65c1.78-1.6,3.37-3.61,5.44-4.6C506.28,210.7,508.18,212.35,511,213.73Z"/><path class="cls-1" d="M531.66,244.92c9.83-11.07,22.52-14,34.6-18.93-.38-1.37-1-3.34-1.47-5.33-.81-3.21-1.19-6.66,2.12-8.48,2.86-1.59,8.39-3.85,9-3,2.78,3.69,4.27,8.37,6,12.77.17.41-1,1.73-1.77,2.09q-22.56,10.51-45.2,20.86C534.45,245.13,533.72,244.92,531.66,244.92Z"/><path class="cls-1" d="M566.86,185.78c-4.25-.3-7.74-.3-11.12-.88-2.19-.38-4.78-1.09-6.21-2.59a15.79,15.79,0,0,1-4-7.56c-.15-.79,3.67-2.69,5.88-3.51,7.53-2.8,8.79-2.2,12,5.27C564.61,179.38,565.58,182.35,566.86,185.78Z"/><path class="cls-1" d="M443.52,243.67c-1.08-4.34-2.06-7.86-2.82-11.43-1.19-5.55,6.08-12.86,11.53-11.45,1.07.28,2.22,2,2.52,3.22,1.37,5.59.14,10.59-4.36,14.44C448.4,240.16,446.21,241.64,443.52,243.67Z"/><path class="cls-1" d="M548.19,212.87c-4.6,0-8.5-3.61-8.5-7.9a8.82,8.82,0,0,1,8.62-9c4.84,0,8.57,3.41,8.53,7.77C556.79,208.65,552.8,212.85,548.19,212.87Z"/><path class="cls-1" d="M473.91,241.9c-.14,5-4.87,10.19-9.18,10.09-3.46-.08-6.13-4.12-5.88-8.93.22-4.29,5-9,9.12-8.93C471.41,234.19,474,237.62,473.91,241.9Z"/><path class="cls-1" d="M300.55,126.46c-1.83,13.12-4.73,24.18-17.51,29.24-.77.31-1.47.81-2.25,1.08-4.76,1.65-10.5,5.75-14.11,4.36-7.71-3-13.55-9.53-16.39-17.86-6.18-18.09,7.64-39.39,26.63-41.17,7.82-.74,17.14,4.47,20.23,12C298.89,118.3,299.62,123,300.55,126.46ZM273,118.3c2.72,1.23,4.68,2.8,5.53,2.34a5.35,5.35,0,0,0,2.33-4.31c-.13-1.34-1.87-2.74-3.2-3.67a5.2,5.2,0,0,0-3.35-.39c-5.56.78-11.35,7.06-11.71,12.68-.22,3.54,1,6.2,4.81,7,3.23.72,6.59,1.05,9.66,2.17,1.19.42,1.75,2.55,2.6,3.91-1.62.79-3.17,2-4.87,2.29-2,.37-4.36-.5-6.22.14-1.08.38-1.49,2.67-2.2,4.11,3.08,1.31,6.18,3.73,9.23,3.68,5.12-.09,12.28-8.85,12.28-13.59s-3.38-7.07-11.72-8.1a1.57,1.57,0,0,1-.49,0c-1.8-.89-5-1.68-5.09-2.73C270.43,122,272.18,120,273,118.3Z"/><path class="cls-1" d="M215.42,175.19c-.06-5,2.54-7.46,7.75-7.45,4,0,9.49,5.64,9.59,9.86.08,3.36-6.75,9.07-11,9.17C218.37,186.85,215.49,181.61,215.42,175.19Z"/><path class="cls-1" d="M340.71,114c1.13,1.63,1.94,2.67,2.6,3.8,5.26,9.07,2.81,14.24-7.55,15.63a4.58,4.58,0,0,1-3.58-1.63c-3.64-4.95-2.62-10.34,2.45-13.92C336.49,116.54,338.48,115.4,340.71,114Z"/><path class="cls-1" d="M213.55,148c-4.17-15,.15-22.56,11.92-21.7C228.81,137.42,220.23,141.89,213.55,148Z"/><path class="cls-1" d="M336.07,105.15,330.4,93.34c-10,.26-12-.59-16.69-8.12,3.72-1.77,7.21-3.83,11-5.11,4-1.38,5.26,2.17,6.13,4.9,2.09,6.57,3.77,13.28,5.62,19.93Z"/><path class="cls-1" d="M228.25,150.14c0-5.48,3.81-10,8.16-10.12,3.76-.1,6.41,2.66,6.42,6.69,0,5.2-4.42,10.35-8.92,10.25C229.12,156.85,228.52,153.39,228.25,150.14Z"/><path class="cls-1" d="M323.44,111.85c0,3.89-4.34,8.71-8.07,8.88s-7.75-3.89-7.72-7.67a8.52,8.52,0,0,1,8.29-8.26A7.25,7.25,0,0,1,323.44,111.85Z"/><path class="cls-1" d="M234.19,180.38c1.47-7.41,22.42-18.2,31.66-16C255.11,170.62,245.85,177.22,234.19,180.38Z"/><path class="cls-1" d="M331.77,136.26l-30.59,13.61c1.45-7.54,21.59-17.08,30-15.14Z"/><path class="cls-1" d="M124.56,307.9c0-19.33,17.73-37.79,37.82-28.78a18.53,18.53,0,0,1,8.14,7.48c7,12.81,2.21,31.35-10,39.5-6.87,4.59-13.73,8.44-22.36,3C129.33,323.62,125.13,315.87,124.56,307.9Zm23.11,6.4c-2.81-2.23-5.44-4.53-8.29-6.49a4.51,4.51,0,0,0-3.63-.34c-.61.24-1.26,2.41-.87,2.92,2.69,3.45,5.08,8.2,8.68,9.54,2.93,1.1,8-1.18,11.06-3.38s2.83-6.56,1-10.08c-1.39-2.64-3.36-5-4.64-7.66-.57-1.2-.06-2.91,0-4.39a29.36,29.36,0,0,1,5.18,1.33c.92.41,1.3,2.19,2.19,2.46,1.33.41,3.84.56,4.22-.11,2.27-4-1-6.31-3.35-8.74a6.75,6.75,0,0,0-3.62-2c-1.72-.22-3.54.43-5.32.48-5.6.15-9.25,4-8,9.43.64,2.87,2.63,5.65,4.6,8C149.89,308.78,149.74,311.89,147.67,314.3Z"/><path class="cls-1" d="M124.69,266c-4.16-1.57-6,.43-7.86,3.56-2.37,3.94-10,5.51-13.89,3.22-.86-.51-1.68-2.68-1.29-3.45a75.45,75.45,0,0,1,6.19-10.08c.49-.69,2.51-.9,3.5-.5,4.53,1.81,8.94,3.92,13.4,5.91Z"/><path class="cls-1" d="M188.92,335.86c3.27-.05,6.18,1,6,5.54-.19,4.15-3.88,9.62-6.38,9.6-4.1,0-10.23-4.51-10.25-7.5C178.22,339.7,183.51,335.71,188.92,335.86Z"/><path class="cls-1" d="M100.52,306c-1,1.19-2.73,4.65-5.32,5.6-3.2,1.17-9.89-4.26-9-6.64,1.47-3.77,3.4-8,6.46-10.3C95,293,100.4,299.59,100.52,306Z"/><path class="cls-1" d="M191,318.63c0,3.74-4.12,8.24-7.75,8.4-3.37.15-7-3.66-7.19-7.52-.17-3.6,4.18-7.93,8.05-8C187.52,311.43,191,315,191,318.63Z"/><path class="cls-1" d="M107.09,290.72c.08-4,3.45-7.66,7-7.67,3.93,0,7.77,3.54,7.58,7-.19,3.71-4.28,7.9-7.69,7.89S107,294.1,107.09,290.72Z"/><path class="cls-1" d="M205,315.27c-5.08-2.78-8.43-10.13-6.7-14.6a5.08,5.08,0,0,1,3.51-2.66c7.72-.84,10.79,3.36,7.58,10.32A58.81,58.81,0,0,1,205,315.27Z"/><path class="cls-1" d="M172,345.86l-15.27-8.68,1-1.75,15.5,8.48Z"/><path class="cls-1" d="M113.82,318.79l-12.65-5.47.79-1.77,12.9,5.6Z"/><path class="cls-1" d="M618.61,504.47c-19.64-.77-25.9-18.37-20.59-33,2-5.62,5.15-10.36,10.32-13.67,13.17-8.45,24.39-5.21,30.85,9,6,13.29.47,29.07-12.57,35.22C624.12,503.25,621.29,503.69,618.61,504.47Zm-12.4-23.28L604.32,483l7.25,11.91c3.15-.71,5.84-1.33,8.54-1.91,4.51-1,7.87-4.69,6.81-8.88-.76-3-3.08-5.66-4.86-8.37-1.26-1.91-2.79-3.63-4.2-5.44l1.3-1.66,11.19,4.7c1.39-6.14-.47-9.32-5.87-10.06a19.55,19.55,0,0,0-6.9.37c-6.05,1.39-8.15,5.9-5.12,11.28,1.35,2.4,3.86,4.14,5.29,6.52,1,1.63,1,3.84,1.45,5.78-1.85-.37-3.88-.37-5.51-1.19A79.22,79.22,0,0,1,606.21,481.19Z"/><path class="cls-1" d="M673,491.51c-2.48-5.27-5.29-10.41-7.31-15.85-1.48-4,1.32-5.42,4.89-5.26,6.74.31,10,5.07,7.73,11.34-1.11,3.12-2.37,6.19-3.56,9.29Z"/><path class="cls-1" d="M654,485.91c4.23,0,6.83,2.63,6.75,6.77-.07,4-3.43,8-6.69,8-3.57,0-8.16-4.49-8.13-8C646,488.63,649.22,485.89,654,485.91Z"/><path class="cls-1" d="M668.33,514.12c-.22,6-3.32,10.3-7.49,9.68-3-.46-7.19-.36-7.26-5-.09-6.54,3.58-9.52,10.67-9.21C667.93,509.76,668.47,510.37,668.33,514.12Z"/><path class="cls-1" d="M593,442.38c-1.38,5.53-4.13,8.33-8.37,9.08-2.47.43-5.13-.2-7.71-.36.32-2.16,0-4.82,1.13-6.38,1.45-2,4-4,6.28-4.32C587,440.06,589.85,441.58,593,442.38Z"/><path class="cls-1" d="M571.39,486.59c-8.11-2.6-10-4.84-8.22-9.3,2-4.82,5.14-6.73,8.51-5.14C576.22,474.29,576.18,478.88,571.39,486.59Z"/><path class="cls-1" d="M593.12,466.26c0,3.9-2.7,6.8-6.34,6.89-3.43.09-5.86-2.93-5.72-7.19.12-3.67,1.7-6,5.73-5.93A6.18,6.18,0,0,1,593.12,466.26Z"/><path class="cls-1" d="M256.91,492c8.59.07,13.85,5.22,14,14.81.19,10.81-3.51,19.83-13.84,25.1-6.27,3.21-10.79,2.67-15.8-2.32s-7.21-15.58-4.39-22.29C241.09,497.22,248.08,491.88,256.91,492Zm-11.49,26.63c-.1,5.61,4.15,8.56,9.26,6.11,8.5-4.09,9.08-8.16,2-14.31-.5-.43-1.25-.81-1.41-1.36a21.84,21.84,0,0,1-.47-3.54c1.2-.14,2.51-.65,3.56-.32a19.82,19.82,0,0,1,4,2.38l1.41-1c-1.06-2.11-1.78-5.68-3.26-6-3.13-.73-7.16-.69-9.83.81-1.76,1-2.82,5.27-2.33,7.69s3.17,4.38,5.23,6.16c2.31,2,2.44,3.38-.35,5.51-.24-1.79-.39-2.89-.41-3.08Z"/><path class="cls-1" d="M208.09,505.88c2.61-7.08,4.78-14.36,8-21.17,2.63-5.61,9-5.85,12.95-.94a3.94,3.94,0,0,1-.07,3.67,10.62,10.62,0,0,1-10.5,4.38c-2.75-.35-3.88.66-4.71,3-1.35,3.87-2.95,7.65-4.45,11.46Z"/><path class="cls-1" d="M216,520.08c-1.93,1.7-3.74,4.59-5.84,4.83-3.07.34-7.43.16-7.92-4.56-.38-3.69,3.11-8.22,5.66-8.17C211.79,512.26,214.94,515.28,216,520.08Z"/><path class="cls-1" d="M225.74,512.32c-3.11-.34-5.67-1.72-5.8-5.72-.13-3.75,3.2-7.78,6.51-7.44s5.57,2.25,5.7,5.81C232.28,508.72,229.29,512.24,225.74,512.32Z"/><path class="cls-1" d="M291,530.82c-1.05,6.8-2.22,8.16-7.62,7.92-2.09-.1-4.91.61-4.73-3.28.25-5.52,4.06-10.29,8.58-9.47C288.72,526.26,289.75,529.14,291,530.82Z"/><path class="cls-1" d="M285.16,497.32l8.35-1.45v13.22C287.17,507.24,285,504.2,285.16,497.32Z"/><path class="cls-1" d="M286.31,516.06c-3.53,2.42-5.62,4.42-8.08,5.19-.72.22-4-3.94-3.58-4.58a15,15,0,0,1,6-5.39C281.33,510.94,283.53,513.65,286.31,516.06Z"/><path class="cls-1" d="M241.74,388.66c0,7.9-7.34,18.48-13.56,20.2-6.58,1.83-15.54-1.79-19.09-7.71-4.1-6.81-2.46-17.78,3.5-23.51,6.92-6.63,16.21-7.68,23.69-2.56C241.39,378.57,241,384.24,241.74,388.66Zm-25.85,5.49a4.22,4.22,0,0,0,1.51,6.55,13.49,13.49,0,0,0,9.21.13c1.89-.68,3.1-3.8,4.1-6.05.27-.61-1.28-2.09-2.08-3.1a33.33,33.33,0,0,1-3.44-4.23c-.49-.88-.09-2.25-.09-4.43,2.14,1.94,3.09,3.12,4.31,3.77a3.07,3.07,0,0,0,2.76-.3c.58-.49,1-2.18.64-2.59-1.33-1.53-3.08-3.91-4.54-3.82a14,14,0,0,0-8.14,3.05c-1.15,1-.71,4.51-.1,6.63s2.35,4.24,3.6,6.34Z"/><path class="cls-1" d="M184.63,400.42c-2.78-2.23-6.19-3.94-7.72-6.69-.61-1.1,2.75-4.68,4.72-6.72.46-.47,3,.34,4,1.23C189.56,391.92,187.6,395.66,184.63,400.42Z"/><path class="cls-1" d="M253,393.56c.88,1.31,3.15,3.23,3.35,5.35.32,3.3-2.33,6-5.55,5.33-2.35-.53-5.64-3.23-5.91-5.3C244.46,395.39,247.87,393.91,253,393.56Z"/><path class="cls-1" d="M195.81,376.94c4.44,1.09,7.95,2.12,7.19,5.75-.51,2.43-3.48,5.66-5.79,6.07-3.64.65-5.59-2.86-5.07-6.28C192.44,380.49,194.53,378.78,195.81,376.94Z"/><path class="cls-1" d="M265.64,396.22c-3.8-2.42-5.95-5.71-5.57-10a5.63,5.63,0,0,1,3.16-3.79c2.28-.85,3.49.47,3.69,3.12C267.17,389.08,270.09,392.75,265.64,396.22Z"/><path class="cls-1" d="M205.45,363.58,215.87,368c-.07.47-.13.94-.2,1.41a74.16,74.16,0,0,1-9.33-1.75c-.63-.2-.55-2.68-.79-4.12Z"/><path class="cls-1" d="M397,358.74c1.24-1.53,2.51-3,3.73-4.6s2.16-2.89,3.51-4.71c-8.88-3.63-11.65-10.18-10.12-19,1.11-6.43,8.38-11.88,15.88-11.74,6.32.11,10.9,4.81,11.55,12,.63,6.89-.95,12.6-7.49,16.54-5.8,3.5-11.08,7.85-16.6,11.83Zm5.56-20c2.14,4.6,5.35,5,8.29,3.58,2.09-1,4.94-3.48,4.91-5.26-.1-6-6.1-4-9.56-5.82,0-5.78,4.15-3.78,7.33-3.46-.94-4.49-4.21-6-7.07-4.34-2.55,1.47-4.18,5-5.5,7.88-.39.86,1.32,3.34,2.63,4.15,2.26,1.4,5,2.06,7.49,3l-.19,1Z"/><path class="cls-1" d="M424.87,339.54c1.8-1.47,3.4-3.66,5.45-4.24,3.82-1.09,5.52-3.07,5.24-7a5.53,5.53,0,0,1,.37-2.45c.65-1.58,1.48-3.08,2.24-4.62,1.62,1,3.9,1.59,4.69,3s1.16,5,.26,5.68c-5.41,4.06-11.24,7.57-16.93,11.27Z"/><path class="cls-1" d="M379.15,356.42c2.12-.25,3.42-.43,4.72-.54,5.41-.49,7.6,1.95,5.73,6.92-.6,1.59-2.51,3.53-4,3.69s-3.34-1.69-4.22-3.15C380.27,361.45,380,359.07,379.15,356.42Z"/><path class="cls-1" d="M376.8,348.19c-6.43-7.87-5.67-11.28,3.11-14C383.21,339.86,379.41,343.81,376.8,348.19Z"/><path class="cls-1" d="M423.81,306.27c2-1,5.05-3.46,5.83-2.87,2.28,1.74,3.67,4.66,5.42,7.11l-1.43,1.57-9.54-3.83C424,307.59,423.9,306.93,423.81,306.27Z"/><path class="cls-1" d="M431.78,323.13c-1.58.59-3.19,1.72-4.71,1.61-1.07-.07-3-2.42-2.85-2.74.84-1.47,2.23-3.45,3.58-3.58s2.77,1.82,4.17,2.86C431.9,321.9,431.84,322.51,431.78,323.13Z"/><path class="cls-1" d="M388.94,340.69c1.6,1.71,3.48,3.33,3.3,3.61-.93,1.42-2.25,3.19-3.71,3.47-.92.18-2.3-2-3.47-3.16Z"/><path class="cls-1" d="M318.94,512q1.94-13.59,3.86-27.18c3.37,9.66,1.83,18.71-2.06,27.49Z"/></svg>